# AST/ASF file generated using VICON BodyLanguage
# -----------------------------------------------
:version 1.10
:name VICON
:units
  mass 1.0
  length 0.45
  angle deg
:documentation
   .ast/.asf automatically generated from VICON data using
   VICON BodyBuilder and BodyLanguage model FoxedUp or BRILLIANT.MOD
:root
   order TX TY TZ RX RY RZ
   axis XYZ
   position 0 0 0  
   orientation 0 0 0 
:bonedata
  begin
     id 1 
     name lhipjoint
     direction 0.625129 -0.738222 0.253461 
     length 2.5165 
     axis 0 0 0  XYZ
  end
  begin
     id 2 
     name lfemur
     direction 0.34202 -0.939693 0  
     length 7.54288  
     axis 0 0 20  XYZ
    dof rx ry rz
    limits (-160.0 20.0)
           (-70.0 70.0)
           (-60.0 70.0)
  end
  begin
     id 3 
     name ltibia
     direction 0.34202 -0.939693 0   
     length 7.71864   
     axis 0 0 20   XYZ
    dof rx
    limits (-10.0 170.0)
  end
  begin
     id 4 
     name lfoot
     direction 0.0772037 -0.212115 0.97419   
     length 2.18429   
     axis -90 7.62852e-016 20   XYZ
    dof rx rz
    limits (-45.0 90.0)
           (-70.0 20.0)
  end
  begin
     id 5 
     name ltoes
     direction 1.53513e-011 -4.21834e-011 1   
     length 1.09718   
     axis -90 7.62852e-016 20   XYZ
    dof rx
    limits (-90.0 20.0)
  end
  begin
     id 6 
     name rhipjoint
     direction -0.621946 -0.740623 0.254285   
     length 2.50835  
     axis 0 0 0  XYZ 
  end
  begin
     id 7 
     name rfemur
     direction -0.34202 -0.939693 0   
     length 7.43366   
     axis 0 0 -20   XYZ
    dof rx ry rz
    limits (-160.0 20.0)
           (-70.0 70.0)
           (-70.0 60.0)
  end
  begin
     id 8 
     name rtibia
     direction -0.34202 -0.939693 0   
     length 7.77122   
     axis 0 0 -20   XYZ
    dof rx
    limits (-10.0 170.0)
 end
 begin
     id 9 
     name rfoot
     direction -0.082694 -0.2272 0.970331   
     length 2.2293  
     axis -90 -7.62852e-016 -20   XYZ
    dof rx rz
    limits (-45.0 90.0)
           (-20.0 70.0)
  end
  begin
     id 10 
     name rtoes
     direction -1.53565e-011 -4.21695e-011 1   
     length 1.1178   
     axis -90 -7.62852e-016 -20   XYZ
    dof rx
    limits (-90.0 20.0)
  end
  begin
     id 11 
     name lowerback
     direction -0.000695208 0.988391 -0.151929   
     length 1.95077   
     axis 0 0 0   XYZ
    dof rx ry rz
    limits (-20.0 45.0)
           (-30.0 30.0)
           (-30.0 30.0)
  end
  begin
     id 12 
     name upperback
     direction -0.00268925 0.999885 -0.0149203   
     length 1.96246   
     axis 0 0 0   XYZ
    dof rx ry rz
    limits (-20.0 45.0)
           (-30.0 30.0)
           (-30.0 30.0)
  end
  begin
     id 13 
     name thorax
     direction -0.000848408 0.998481 0.0550912   
     length 2.00867   
     axis 0 0 0   XYZ
    dof rx ry rz
    limits (-20.0 45.0)
           (-30.0 30.0)
           (-30.0 30.0)
  end
  begin
     id 14 
     name lowerneck
     direction -0.00577709 0.998999 0.0443608   
     length 1.75762   
     axis 0 0 0   XYZ
    dof rx ry rz
    limits (-20.0 45.0)
           (-30.0 30.0)
           (-30.0 30.0)
  end
  begin
     id 15 
     name upperneck
     direction 0.0320945 0.999136 0.0264105   
     length 1.72601   
     axis 0 0 0   XYZ
    dof rx ry rz
    limits (-20.0 45.0)
           (-30.0 30.0)
           (-30.0 30.0)
  end
  begin
     id 16
     name head
     direction 0.0120552 0.999916 0.00480151  
     length 1.79973  
     axis 0 0 0   XYZ
    dof rx ry rz
    limits (-20.0 45.0)
           (-30.0 30.0)
           (-30.0 30.0)
  end
  begin
     id 17 
     name lclavicle
     direction 0.909 0.371533 -0.188897  
     length 3.47956  
     axis 0 0 0   XYZ
    dof ry rz
    limits (-20.0 10.0)
           (0.0 20.0)
  end
  begin
     id 18 
     name lhumerus
     direction 1 -4.48963e-011 -6.48352e-028   
     length 5.52302   
     axis 180 -30 -90   XYZ
    dof rx ry rz
    limits (-60.0 90.0)
           (-90.0 90.0)
           (-90.0 90.0)
  end
  begin
     id 19
     name lradius
     direction 1 -4.48968e-011 -4.78536e-027   
     length 3.58675   
     axis 180 -30 -90   XYZ
    dof rx
    limits (-10.0 170.0)
  end
  begin
     id 20
     name lwrist
     direction 1 -4.48942e-011 -9.9435e-027   
     length 1.79337   
     axis 8.54312e-015 90 90   XYZ
    dof ry
    limits (-180.0 0.0)
 end
  begin
     id 21 
     name lhand
     direction 1 -4.4904e-011 -1.9887e-026   
     length 0.536412   
     axis 1.26896e-014 90 90   XYZ
    dof rx rz
    limits (-90.0 90.0)
           (-45.0 45.0)
  end
  begin
     id 22 
     name lfingers
     direction 1 -4.48893e-011 -3.9774e-026   
     length 0.432469   
     axis 2.53792e-014 90 90   XYZ
    dof rx
    limits (0.0 90.0)
  end
  begin
     id 23
     name lthumb
     direction 0.707107 -6.34934e-011 0.707107   
     length 0.620942   
     axis -90 45 2.85299e-015   XYZ
    dof rx rz
    limits (-45.0 45.0)
           (-45.0 45.0)
  end
  begin
     id 24 
     name rclavicle
     direction -0.89595 0.416672 -0.153813   
     length 3.44099  
     axis 0 0 0   XYZ 
    dof ry rz
    limits (-10.0 20.0)
           (-20.0 0.0)
  end
  begin
     id 25 
     name rhumerus
     direction -1 -4.48952e-011 5.57804e-028  
     length 5.8478   
     axis 180 30 90   XYZ
    dof rx ry rz
    limits (-90.0 60.0)
           (-90.0 90.0)
           (-90.0 90.0)
  end
  begin
     id 26 
     name rradius
     direction -1 -4.48967e-011 -7.93646e-027   
     length 3.62717   
     axis 180 30 90   XYZ
    dof rx
    limits (-10.0 170.0)
  end
  begin
     id 27 
     name rwrist
     direction -1 -4.49008e-011 -9.9435e-027   
     length 1.81359   
     axis 8.54312e-015 -90 -90   XYZ
    dof ry
    limits (-180.0 0.0)
  end
  begin
     id 28
     name rhand
     direction -1 -4.48812e-011 -1.9887e-026   
     length 0.650516   
     axis 1.26896e-014 -90 -90   XYZ
    dof rx rz
    limits (-90.0 90.0)
           (-45.0 45.0)
  end
  begin
     id 29
     name rfingers
     direction -1 -4.49228e-011 -3.9774e-026   
     length 0.524463   
     axis 2.53792e-014 -90 -90   XYZ
    dof rx
    limits (0.0 90.0)
  end
  begin
     id 30
     name rthumb
     direction -0.707107 -6.34912e-011 0.707107   
     length 0.753027   
     axis -90 -45 -2.85299e-015   XYZ
    dof rx rz
    limits (-45.0 45.0)
           (-45.0 45.0)
  end
:hierarchy
  begin
    root lhipjoint rhipjoint lowerback
    lhipjoint lfemur
    lfemur ltibia
    ltibia lfoot
    lfoot ltoes
    rhipjoint rfemur
    rfemur rtibia
    rtibia rfoot
    rfoot rtoes
    lowerback upperback
    upperback thorax
    thorax lowerneck lclavicle rclavicle
    lowerneck upperneck
    upperneck head
    lclavicle lhumerus
    lhumerus lradius
    lradius lwrist
    lwrist lhand lthumb
    lhand lfingers
    rclavicle rhumerus
    rhumerus rradius
    rradius rwrist
    rwrist rhand rthumb
    rhand rfingers
  end

#!OML:ASF F:\VICON\USERDATA\INSTALL\rory3\rory3.ASF
:FULLY-SPECIFIED
:DEGREES
1559
root -9.32502 17.6186 21.6829 -188.085 181.632 -185.446
lowerback 12.2015 -0.136674 4.92885
upperback 3.60588 0.417569 0.132676
thorax -3.01926 0.199484 -2.70177
lowerneck -1.97746 -4.24941 0.214912
upperneck 1.11918 -5.80162 6.72208
head 0.890772 -2.83452 1.97934
rclavicle 9.93923e-015 -2.14687e-014
rhumerus -22.5836 5.17525 -79.5232
rradius 51.6903
rwrist 9.67139
rhand -22.9567 18.9795
rfingers 7.12502
rthumb 3.48492 -10.9718
lclavicle 9.93923e-015 -2.14687e-014
lhumerus -35.7599 -1.97759 76.166
lradius 5.40381
lwrist 31.8438
lhand -39.674 34.908
lfingers 7.12502
lthumb -12.6535 64.5047
rfemur 8.68266 7.34718 32.3962
rtibia 24.9126
rfoot -13.7927 -7.01872
rtoes 0.23622
lfemur -20.2485 -0.225673 -11.0818
ltibia 25.5995
lfoot -8.09599 8.13372
ltoes -11.0608
1560
root -9.32975 17.6206 21.5361 -188.168 181.547 -185.451
lowerback 12.2042 -0.218686 4.94722
upperback 3.63934 0.311512 0.159762
thorax -2.99444 0.147994 -2.66834
lowerneck -2.23592 -4.36982 0.232468
upperneck 1.75601 -6.00698 6.67261
head 1.14112 -2.91637 1.94559
rclavicle -2.29596e-014 1.70955e-014
rhumerus -23.0252 5.23439 -79.7271
rradius 51.5799
rwrist 9.52014
rhand -22.9641 18.7809
rfingers 7.12502
rthumb 3.47773 -11.1705
lclavicle -2.29596e-014 1.70955e-014
lhumerus -35.8772 -1.92433 76.3915
lradius 4.59668
lwrist 31.9273
lhand -39.201 36.0593
lfingers 7.12502
lthumb -12.1974 65.6837
rfemur 8.1587 7.28613 32.3909
rtibia 25.0963
rfoot -13.7208 -7.23932
rtoes 0.568222
lfemur -20.4549 0.79473 -11.2197
ltibia 27.8044
lfoot -7.83849 6.93148
ltoes -11.7724
1561
root -9.33236 17.6264 21.385 -188.233 181.443 -185.24
lowerback 12.226 -0.317721 4.74773
upperback 3.69216 0.154891 0.12715
thorax -2.9651 0.072152 -2.56722
lowerneck -2.37486 -4.29963 0.212434
upperneck 2.17438 -5.94161 6.67948
head 1.29688 -2.87049 1.94696
rclavicle -9.98893e-015 1.31198e-014
rhumerus -23.4545 5.33493 -79.9482
rradius 51.4725
rwrist 9.37798
rhand -23.1418 18.8174
rfingers 7.12502
rthumb 3.30617 -11.1368
lclavicle -9.98893e-015 1.31198e-014
lhumerus -36.0725 -1.75304 76.6182
lradius 3.95697
lwrist 31.8252
lhand -39.1322 36.5123
lfingers 7.12502
lthumb -12.1311 66.1406
rfemur 7.53234 7.44377 32.1984
rtibia 25.391
rfoot -13.7609 -7.5329
rtoes 1.60085
lfemur -20.6765 1.77047 -11.6133
ltibia 30.1235
lfoot -7.35239 5.87554
ltoes -13.5175
1562
root -9.33344 17.6328 21.2407 -188.206 181.595 -185.322
lowerback 12.1156 -0.357557 4.90612
upperback 3.70933 0.114865 0.145768
thorax -2.88905 0.0541489 -2.63077
lowerneck -2.20895 -4.17881 0.170382
upperneck 2.24929 -5.78405 6.82256
head 1.29339 -2.79144 2.00724
rclavicle -1.07841e-014 4.37326e-015
rhumerus -24.0203 5.3462 -80.2308
rradius 51.395
rwrist 9.16928
rhand -23.1321 18.7582
rfingers 7.12502
rthumb 3.31555 -11.1957
lclavicle -1.07841e-014 4.37326e-015
lhumerus -36.49 -1.68251 76.7765
lradius 3.84012
lwrist 31.9961
lhand -39.4729 36.7189
lfingers 7.12502
lthumb -12.4597 66.3275
rfemur 6.83299 7.83179 32.3546
rtibia 25.6778
rfoot -13.7065 -7.79209
rtoes 3.03174
lfemur -20.8827 2.90608 -11.6119
ltibia 32.4998
lfoot -7.11558 4.82718
ltoes -15.2672
1563
root -9.33238 17.6386 21.0979 -188.183 181.753 -185.269
lowerback 12.0239 -0.391845 4.93038
upperback 3.66349 0.0675285 0.12774
thorax -2.89063 0.0297223 -2.65627
lowerneck -1.98311 -4.21326 0.130302
upperneck 2.33833 -5.83043 6.85121
head 1.28674 -2.81663 2.02652
rclavicle 2.75814e-015 -3.57812e-015
rhumerus -24.4787 5.30899 -80.5224
rradius 50.895
rwrist 8.97435
rhand -22.7176 18.7017
rfingers 7.12502
rthumb 3.71583 -11.2457
lclavicle 2.75814e-015 -3.57812e-015
lhumerus -37.0474 -1.59099 76.9548
lradius 3.97604
lwrist 32.106
lhand -39.6531 37.5093
lfingers 7.12502
lthumb -12.6333 67.1072
rfemur 6.21023 8.18351 32.3385
rtibia 25.8347
rfoot -13.4893 -8.00435
rtoes 3.94441
lfemur -21.089 3.69687 -11.6342
ltibia 34.9279
lfoot -7.08575 3.8405
ltoes -14.6899
1564
root -9.33066 17.6547 20.9556 -188.304 181.964 -185.258
lowerback 12.2086 -0.447387 4.97971
upperback 3.59152 0.0127656 0.133795
thorax -3.07114 -0.00333772 -2.67057
lowerneck -1.8387 -4.21624 0.129304
upperneck 2.60545 -5.84526 6.77135
head 1.34422 -2.82111 2.00176
rclavicle -1.40143e-014 1.47101e-014
rhumerus -25.0794 5.48292 -80.8195
rradius 50.4513
rwrist 8.72256
rhand -22.4052 18.7005
rfingers 7.12502
rthumb 4.01745 -11.2414
lclavicle -1.40143e-014 1.47101e-014
lhumerus -37.7363 -1.4321 77.1507
lradius 4.30413
lwrist 31.7526
lhand -38.8779 37.5791
lfingers 7.12502
lthumb -11.8859 67.2217
rfemur 5.80796 8.46329 32.3577
rtibia 25.8446
rfoot -13.1758 -8.10623
rtoes 4.54708
lfemur -21.2756 4.53696 -11.6024
ltibia 37.3771
lfoot -6.6241 3.08074
ltoes -17.0522
1565
root -9.33018 17.6736 20.8189 -188.568 182.218 -185.377
lowerback 12.4048 -0.468905 5.20563
upperback 3.64096 0.0223607 0.149592
thorax -3.1245 0.000433873 -2.7834
lowerneck -1.74314 -4.18017 0.147993
upperneck 2.74586 -5.80373 6.7597
head 1.36977 -2.79863 1.99675
rclavicle -1.46852e-014 -2.78299e-015
rhumerus -25.7747 5.3301 -81.067
rradius 50.2629
rwrist 8.78167
rhand -22.249 18.6475
rfingers 7.12502
rthumb 4.1683 -11.2914
lclavicle -1.46852e-014 -2.78299e-015
lhumerus -38.2671 -1.36936 77.4082
lradius 4.73781
lwrist 31.3111
lhand -37.7547 38.0467
lfingers 7.12502
lthumb -10.8027 67.7489
rfemur 5.60493 8.71492 32.5297
rtibia 25.8223
rfoot -12.9821 -8.10991
rtoes 5.71959
lfemur -21.1412 5.39557 -11.353
ltibia 39.7555
lfoot -6.0905 2.11474
ltoes -18.4615
1566
root -9.32359 17.6822 20.6833 -188.739 182.221 -185.19
lowerback 12.3894 -0.559752 5.17227
upperback 3.70344 -0.108689 0.0517757
thorax -3.06191 -0.0616294 -2.8475
lowerneck -1.66135 -4.08715 0.26971
upperneck 2.84422 -5.68353 6.66991
head 1.37486 -2.73775 1.95
rclavicle -1.46604e-015 -1.59028e-015
rhumerus -26.3638 5.238 -81.3654
rradius 49.9346
rwrist 8.87552
rhand -22.1541 18.5002
rfingers 7.12502
rthumb 4.26 -11.437
lclavicle -1.46604e-015 -1.59028e-015
lhumerus -38.6384 -1.25936 77.5388
lradius 5.08463
lwrist 31.2972
lhand -36.8682 37.3662
lfingers 7.12502
lthumb -9.94751 67.1112
rfemur 5.39504 8.71251 32.2714
rtibia 25.7515
rfoot -12.8979 -8.07415
rtoes 6.77185
lfemur -20.95 5.8757 -11.4373
ltibia 42.0636
lfoot -5.74269 1.12799
ltoes -17.5566
1567
root -9.31403 17.6823 20.5463 -188.839 182.11 -184.774
lowerback 12.308 -0.654219 4.94722
upperback 3.74429 -0.273483 -0.116965
thorax -2.9896 -0.140278 -2.87281
lowerneck -1.54168 -4.02375 0.385834
upperneck 2.88707 -5.59677 6.54046
head 1.35576 -2.69629 1.89171
rclavicle 3.85145e-015 2.78299e-015
rhumerus -26.9752 5.18782 -81.6472
rradius 49.5046
rwrist 8.83556
rhand -22.0661 18.522
rfingers 7.12502
rthumb 4.34498 -11.4134
lclavicle 3.85145e-015 2.78299e-015
lhumerus -38.865 -1.16274 77.6522
lradius 5.27713
lwrist 31.1001
lhand -36.2336 35.8225
lfingers 7.12502
lthumb -9.33522 65.5958
rfemur 5.1328 8.67267 31.7432
rtibia 25.7387
rfoot -12.7424 -8.11848
rtoes 6.3721
lfemur -20.7627 6.13434 -11.8014
ltibia 44.282
lfoot -5.91286 0.389399
ltoes -17.8983
1568
root -9.30795 17.6883 20.4133 -189.026 182.143 -184.48
lowerback 12.2811 -0.724103 4.75223
upperback 3.77771 -0.395059 -0.195262
thorax -2.95036 -0.198885 -2.82685
lowerneck -1.33804 -4.00489 0.381818
upperneck 2.91919 -5.56295 6.38913
head 1.32388 -2.6846 1.84788
rclavicle -4.74598e-015 -4.77083e-015
rhumerus -27.6113 5.29794 -81.897
rradius 48.8645
rwrist 8.70427
rhand -22.1366 18.7567
rfingers 7.12502
rthumb 4.27682 -11.1801
lclavicle -4.74598e-015 -4.77083e-015
lhumerus -39.0977 -0.991897 77.7981
lradius 5.36563
lwrist 30.4165
lhand -35.7262 35.7439
lfingers 7.12502
lthumb -8.84562 65.5385
rfemur 4.84192 8.72247 31.3886
rtibia 25.8191
rfoot -12.7224 -8.20138
rtoes 5.31676
lfemur -20.3568 6.42025 -11.9449
ltibia 46.4426
lfoot -6.54567 -0.31352
ltoes -19.4068
1569
root -9.29618 17.7027 20.2775 -188.995 182.06 -184.115
lowerback 11.9688 -0.844721 4.47942
upperback 3.79918 -0.606311 -0.252466
thorax -2.77424 -0.299415 -2.70316
lowerneck -1.05639 -3.92561 0.323523
upperneck 2.84148 -5.43889 6.23665
head 1.24256 -2.6324 1.81691
rclavicle 1.93815e-015 3.18055e-015
rhumerus -27.9766 5.39124 -82.0693
rradius 47.9516
rwrist 8.7686
rhand -22.1606 18.727
rfingers 7.12502
rthumb 4.2537 -11.2103
lclavicle 1.93815e-015 3.18055e-015
lhumerus -39.2532 -0.662617 77.9812
lradius 5.4468
lwrist 29.8722
lhand -35.2568 36.2579
lfingers 7.12502
lthumb -8.39257 66.0711
rfemur 4.17932 8.51409 30.7906
rtibia 25.9633
rfoot -12.7524 -8.01508
rtoes 5.99636
lfemur -20.1622 6.61905 -12.2438
ltibia 48.5577
lfoot -6.79858 -0.684042
ltoes -21.3655
1570
root -9.287 17.7096 20.1318 -188.913 182.123 -184.053
lowerback 11.7697 -0.906963 4.54179
upperback 3.78434 -0.692445 -0.279002
thorax -2.68867 -0.340565 -2.75497
lowerneck -0.914865 -3.8548 0.324933
upperneck 2.88328 -5.34166 6.18788
head 1.22639 -2.58601 1.80507
rclavicle 0 -7.95139e-015
rhumerus -28.5458 5.16316 -82.2485
rradius 47.2716
rwrist 8.95497
rhand -22.0032 18.5118
rfingers 7.12502
rthumb 4.40564 -11.4223
lclavicle 0 -7.95139e-015
lhumerus -39.2481 -0.53066 78.1083
lradius 5.47843
lwrist 29.744
lhand -34.9258 37.0921
lfingers 7.12502
lthumb -8.0732 66.9179
rfemur 3.47686 8.54638 30.5977
rtibia 26.0776
rfoot -12.6044 -7.92244
rtoes 8.38941
lfemur -20.0238 6.86489 -12.1362
ltibia 50.6548
lfoot -6.57653 -0.796875
ltoes -22.2067
